<svg xmlns="http://www.w3.org/2000/svg"
 xmlns:xlink="http://www.w3.org/1999/xlink"
 width="24px" height="19px"  viewBox="0 0 24 19">
<path fill-rule="evenodd"  fill="#fd0000"
 d="M11.960541,12.050293 C11.960541,12.050293 1.7659912,2.9675293 1.7659912,2.9675293 C1.7659912,2.9675293 1.7659912,1.9584961 1.7659912,1.9584961 C5.89563,1.9584961 18.065582,1.9584961 22.154175,1.9584961 C22.154175,1.9584961 22.154175,2.9675293 22.154175,2.9675293 C22.154175,2.9675293 11.960541,12.050293 11.960541,12.050293 ZM11.95932,14.787842 C11.95932,14.787842 1.7659912,5.711914 1.7659912,5.711914 C1.7659912,10.033447 1.7659912,12.802246 1.7659912,17.385498 C5.8545837,17.385498 18.024689,17.385498 22.154175,17.385498 C22.154175,12.801758 22.154175,10.035645 22.154175,5.711914 C22.154175,5.711914 11.95932,14.787842 11.95932,14.787842 Z"/>
</svg>