<svg xmlns="http://www.w3.org/2000/svg"
 xmlns:xlink="http://www.w3.org/1999/xlink"
 width="21px" height="21px"  viewBox="0 0 21 21">
<path fill-rule="evenodd"  fill="#fd0000"
 d="M18.842651,16.687012 C18.308594,18.307129 16.21814,19.116455 14.724243,18.981934 C12.683594,18.797607 10.463989,17.716309 8.778564,16.524902 C6.3009644,14.772461 3.9814453,12.063477 2.6289062,9.189209 C1.6729736,7.157959 1.4590454,4.659424 2.8807373,2.8078613 C3.406067,2.123291 3.9736938,1.7578125 4.8286133,1.7163086 C6.0131836,1.657959 6.1796875,2.3354492 6.5856934,3.3913574 C6.889038,4.1799316 7.293396,4.9855957 7.5200195,5.8029785 C7.943115,7.331299 6.4642334,7.3935547 6.277771,8.64209 C6.1604004,9.428955 7.1153564,10.484863 7.546875,11.045898 C8.390991,12.143799 9.406738,13.092773 10.552673,13.814209 C11.208618,14.228027 12.268188,14.9729 13.019897,14.561768 C14.176331,13.928467 14.066772,11.977295 15.686035,12.637451 C16.523926,12.979004 17.334595,13.470215 18.135681,13.901611 C19.37207,14.566406 19.31427,15.255371 18.842651,16.687012 C18.4906,17.756348 19.195251,15.616699 18.842651,16.687012 Z"/>
</svg>