<svg xmlns="http://www.w3.org/2000/svg"
 xmlns:xlink="http://www.w3.org/1999/xlink"
 width="22px" height="17px"  viewBox="0 0 22 17">
<path fill-rule="evenodd"  fill="#ffffff"
 d="M1.3032227,1.3548889 C1.3032227,4.2519684 1.3032227,12.701309 1.3032227,15.548035 C8.154785,15.548035 13.29834,15.548035 20.448242,15.548035 C20.448242,12.701309 20.448242,4.2561226 20.448242,1.3548889 C12.101318,1.3548889 9.679565,1.3548889 1.3032227,1.3548889 ZM3.2177734,13.655926 C3.2177734,13.655926 3.2177734,6.0335083 3.2177734,6.0335083 C3.2177734,6.0335083 10.875488,12.690407 10.875488,12.690407 C10.875488,12.690407 18.533813,6.041294 18.533813,6.041294 C18.533813,6.041294 18.533813,13.655926 18.533813,13.655926 C18.533813,13.655926 3.2177734,13.655926 3.2177734,13.655926 ZM18.533813,3.5221176 C18.533813,3.5221176 10.876343,10.171749 10.876343,10.171749 C10.876343,10.171749 3.2177734,3.5132942 3.2177734,3.5132942 C3.2177734,3.5132942 3.2177734,3.2475166 3.2177734,3.2475166 C3.2177734,3.2475166 18.533813,3.2475166 18.533813,3.2475166 C18.533813,3.2475166 18.533813,3.5221176 18.533813,3.5221176 Z"/>
</svg>