<svg xmlns="http://www.w3.org/2000/svg"
 xmlns:xlink="http://www.w3.org/1999/xlink"
 width="23px" height="23px"  viewBox="0 0 23 23">
<path fill-rule="evenodd"  fill="#ffffff"
 d="M15.052734,12.0387 C16.44458,10.919006 17.336914,9.205467 17.336914,7.2816963 C17.336914,3.9086037 14.599609,1.1745224 11.222778,1.1745224 C7.8461914,1.1745224 5.1086426,3.9086037 5.1086426,7.2816963 C5.1086426,9.205467 6.0012207,10.919006 7.3930664,12.0387 C3.6645508,13.437664 1.0324707,16.894852 1.0324707,21.531944 C1.0324707,21.531944 21.413086,21.531944 21.413086,21.531944 C21.413086,16.894852 18.781128,13.437664 15.052734,12.0387 ZM7.1467285,7.2816963 C7.1467285,5.036083 8.975342,3.2104187 11.222778,3.2104187 C13.470215,3.2104187 15.298828,5.036083 15.298828,7.2816963 C15.298828,9.525753 13.470215,11.352974 11.222778,11.352974 C8.975342,11.352974 7.1467285,9.525753 7.1467285,7.2816963 ZM11.222778,13.38887 C15.079956,13.38887 18.312744,15.642269 19.154785,19.496563 C19.154785,19.496563 3.2907715,19.496563 3.2907715,19.496563 C4.1329346,15.642269 7.3657227,13.38887 11.222778,13.38887 Z"/>
</svg>