<svg xmlns="http://www.w3.org/2000/svg"
 xmlns:xlink="http://www.w3.org/1999/xlink"
 width="21px" height="21px"  viewBox="0 0 21 21">
<path fill-rule="evenodd"  fill="#ffffff"
 d="M8.984985,1.3585243 C5.0283203,1.3585243 1.8206787,4.5623894 1.8206787,8.51635 C1.8206787,12.469273 5.0283203,15.673656 8.984985,15.673656 C12.941895,15.673656 16.149292,12.469273 16.149292,8.51635 C16.149292,4.5623894 12.941895,1.3585243 8.984985,1.3585243 ZM8.984985,13.88485 C6.022339,13.88485 3.6119385,11.476757 3.6119385,8.51635 C3.6119385,5.5559387 6.022339,3.14785 8.984985,3.14785 C11.947754,3.14785 14.358154,5.5559387 14.358154,8.51635 C14.358154,11.476757 11.947754,13.88485 8.984985,13.88485 ZM19.731323,17.98779 C19.731323,17.98779 18.464844,19.25283 18.464844,19.25283 C18.464844,19.25283 14.665527,15.456673 14.665527,15.456673 C14.665527,15.456673 15.932007,14.191116 15.932007,14.191116 C15.932007,14.191116 19.731323,17.98779 19.731323,17.98779 Z"/>
</svg>