<svg xmlns="http://www.w3.org/2000/svg"
 xmlns:xlink="http://www.w3.org/1999/xlink"
 width="23px" height="23px"  viewBox="0 0 23 23">
<path fill-rule="evenodd"  fill="#ffffff"
 d="M18.320435,7.3315277 C17.697021,4.2865067 14.743042,1.1750412 11.311279,1.1750412 C7.774658,1.1750412 4.7473145,3.2706337 4.2547607,7.3315277 C4.2547607,7.3315277 1.1647949,7.3315277 1.1647949,7.3315277 C1.1647949,7.3315277 1.1647949,21.54388 1.1647949,21.54388 C1.1647949,21.54388 21.550415,21.54388 21.550415,21.54388 C21.550415,21.54388 21.550415,7.3315277 21.550415,7.3315277 C21.550415,7.3315277 18.320435,7.3315277 18.320435,7.3315277 ZM11.311279,3.1964035 C13.614258,3.1964035 15.614014,5.301342 16.21753,7.3315277 C16.21753,7.3315277 6.3129883,7.3315277 6.3129883,7.3315277 C6.7683105,4.2865067 8.869019,3.1964035 11.311279,3.1964035 ZM19.51184,19.513176 C19.51184,19.513176 3.2033691,19.513176 3.2033691,19.513176 C3.2033691,19.513176 3.2033691,9.362236 3.2033691,9.362236 C3.2033691,9.362236 19.51184,9.362236 19.51184,9.362236 C19.51184,9.362236 19.51184,19.513176 19.51184,19.513176 Z"/>
</svg>